<svg xmlns="http://www.w3.org/2000/svg" viewBox="0 0 88.6 31.5"><defs><style>.cls-1{fill:#999899;}.cls-2{fill:#040000;}.cls-3,.cls-4{fill:#fff;}.cls-4{stroke:#040000;stroke-miterlimit:10;stroke-width:1.6px;}</style></defs><title>license</title><g id="main"><g id="r"><rect class="cls-1" x="0.8" y="0.8" width="87" height="29.9" rx="0.8"/><path class="cls-2" d="M87,1.62v28.3H1.62V1.62H87M87,0H1.62A1.6,1.6,0,0,0,0,1.62v28.3a1.6,1.6,0,0,0,1.6,1.6H87a1.6,1.6,0,0,0,1.6-1.6V1.62A1.6,1.6,0,0,0,87,0Z" transform="translate(-0.02 -0.02)"/></g><g id="l"><rect class="cls-2" x="34.19" y="23.85" width="53.3" height="6.54" rx="0.5"/><path class="cls-2" d="M87,24.37v5.55H34.72V24.37H87m0-1H34.72a1,1,0,0,0-1,1v5.55a1,1,0,0,0,1,1H87a1,1,0,0,0,1-1V24.37a1,1,0,0,0-1-1Z" transform="translate(-0.02 -0.02)"/></g><g id="by"><path id="b" class="cls-3" d="M43.19,24.57a.16.16,0,0,1,.18-.18h1.78a5.35,5.35,0,0,1,.79.06,3,3,0,0,1,.75.24,1.43,1.43,0,0,1,.56.47,1.38,1.38,0,0,1,.22.78,1.56,1.56,0,0,1-.19.76,1.75,1.75,0,0,1-.53.56l0,0s0,0,0,0,0,0,0,0l0,0a2.73,2.73,0,0,1,.76.56,1.22,1.22,0,0,1,.3.86,1.6,1.6,0,0,1-.21.85,1.53,1.53,0,0,1-.56.54,2.51,2.51,0,0,1-.78.29,4,4,0,0,1-.85.09h-2c-.12,0-.18-.06-.18-.19v-.49c0-.17,0-.33,0-.49,0-.66,0-1.32,0-2s0-1.23,0-1.85c0-.16,0-.33,0-.49S43.19,24.73,43.19,24.57ZM44.32,27h1a1.26,1.26,0,0,0,.47-.08.76.76,0,0,0,.37-.26.63.63,0,0,0,.15-.44.56.56,0,0,0-.18-.46,1,1,0,0,0-.44-.22,2.92,2.92,0,0,0-.5-.05h-.9c0,.25,0,.5,0,.76Zm0,2.56h1.08l.4,0a1.44,1.44,0,0,0,.42-.11.88.88,0,0,0,.33-.24.55.55,0,0,0,.13-.38.57.57,0,0,0-.14-.4.91.91,0,0,0-.37-.22,2.36,2.36,0,0,0-.46-.1l-.42,0h-1v.75C44.32,29,44.32,29.27,44.31,29.52Z" transform="translate(-0.02 -0.02)"/><path id="y" class="cls-3" d="M50.19,30.37s0-.12,0-.25V28.58c-.08-.2-.17-.39-.26-.58l-.28-.57C49.45,27,49.23,26.5,49,26s-.44-.93-.67-1.39a.51.51,0,0,1,0-.14.1.1,0,0,1,.07-.1.32.32,0,0,1,.13,0h1a.17.17,0,0,1,.16.11,2.7,2.7,0,0,1,.17.38c.05.13.1.26.16.38l.38.94c.13.32.26.63.4.94,0,0,0,0,0,0l0,0,0,0s0,0,0,0c.13-.31.26-.63.38-.94s.26-.63.38-.94c0-.11.1-.24.16-.39a2.71,2.71,0,0,1,.16-.37.17.17,0,0,1,.16-.11h1a.32.32,0,0,1,.13,0,.1.1,0,0,1,.07.1.43.43,0,0,1,0,.14L52.5,26.1c-.23.49-.47,1-.71,1.46l-.24.5-.24.52v.9c0,.3,0,.59,0,.89a.16.16,0,0,1-.18.18h-.77A.16.16,0,0,1,50.19,30.37Z" transform="translate(-0.02 -0.02)"/></g><g id="sa"><path id="s" class="cls-3" d="M73,24.71a.8.8,0,0,1,0,.16l-.06.28a.89.89,0,0,1,0,.18.36.36,0,0,1,0,.11.12.12,0,0,1-.11,0l-.1,0-.34-.09a1.34,1.34,0,0,0-.35,0,1.67,1.67,0,0,0-.44.06.82.82,0,0,0-.36.21A.55.55,0,0,0,71,26a.9.9,0,0,0,.16.55,1.53,1.53,0,0,0,.43.36l.56.3a3.19,3.19,0,0,1,.55.35,1.49,1.49,0,0,1,.43.5A1.89,1.89,0,0,1,73,29.89a1.68,1.68,0,0,1-.81.55,3.63,3.63,0,0,1-1.48.15,3.78,3.78,0,0,1-.47-.06,1.84,1.84,0,0,1-.39-.1l-.08-.05a.12.12,0,0,1,0-.1.81.81,0,0,1,0-.17c0-.1,0-.2.07-.3s0-.16,0-.18a.28.28,0,0,1,0-.11.13.13,0,0,1,.1,0h.09l.43.1a2.3,2.3,0,0,0,.45,0,1.89,1.89,0,0,0,.53-.08.89.89,0,0,0,.43-.26.73.73,0,0,0,.16-.51,1,1,0,0,0-.17-.58,1.63,1.63,0,0,0-.44-.38L71,27.55a4,4,0,0,1-.57-.32,1.46,1.46,0,0,1-.44-.48,1.53,1.53,0,0,1-.17-.76,1.49,1.49,0,0,1,.28-.95,1.63,1.63,0,0,1,.73-.52,2.78,2.78,0,0,1,1-.17,4.83,4.83,0,0,1,.6,0,2.15,2.15,0,0,1,.57.15l.08.06A.11.11,0,0,1,73,24.71Z" transform="translate(-0.02 -0.02)"/><path id="a" class="cls-3" d="M74,30.55l-.13,0a.09.09,0,0,1-.07-.1.15.15,0,0,1,0-.07.25.25,0,0,0,0-.07c.26-.56.52-1.11.77-1.67l.75-1.68.6-1.39c.2-.46.41-.92.62-1.38,0,0,0,0,0,0a.05.05,0,0,1,0,0c.21.46.41.92.61,1.38l.6,1.39.75,1.68.77,1.67,0,.07s0,0,0,.07a.09.09,0,0,1-.07.1l-.13,0h-.89a.2.2,0,0,1-.17-.11l-.06-.15a1,1,0,0,0-.07-.15l-.18-.45-.19-.45a.05.05,0,0,0,0,0H75.41a.05.05,0,0,0,0,0l-.2.45c-.06.15-.12.31-.19.45l-.06.15a1,1,0,0,1-.08.15.18.18,0,0,1-.16.11Zm1.81-2.26h1.46c-.12-.29-.23-.58-.35-.88l-.37-.87c-.12.29-.24.58-.37.87S75.9,28,75.78,28.29Z" transform="translate(-0.02 -0.02)"/></g></g><g id="cc"><circle id="r-2" data-name="r" class="cls-4" cx="18.07" cy="16.04" r="12.45"/><path id="c2" d="M27.6,13.39l-2.06,1.09C24,13.09,22.84,12.9,22,13.85a4,4,0,0,0,.17,4.59c1,.9,2.17.63,3.48-.84l2,.95A4.77,4.77,0,0,1,22,21.17c-2.26-.42-3.66-2.21-3.77-4.81a5,5,0,0,1,9.37-3Z" transform="translate(-0.02 -0.02)"/><path id="c1" d="M18,13.41,15.91,14.5c-1.46-1.39-2.56-1.6-3.45-.69a3.89,3.89,0,0,0,.07,4.58c.93.94,2.14.69,3.57-.77l1.84.93c-.74,2-2.78,3-5.36,2.65-2.34-.34-3.84-2.2-4-4.93a5.08,5.08,0,0,1,3.53-5.22C14.66,10.42,17,11.33,18,13.41Z" transform="translate(-0.02 -0.02)"/></g><g id="by-2" data-name="by"><circle id="r-3" data-name="r" class="cls-4" cx="47.89" cy="12.42" r="8.84"/><path id="t2" d="M50.52,14,49.45,14v4.58h-3V14.06l-1.1-.1c0-1.31,0-2.61,0-3.91,0-.21.46-.57.72-.59,1.22-.06,2.45,0,3.68,0a.7.7,0,0,1,.76.77C50.51,11.44,50.52,12.66,50.52,14Z" transform="translate(-0.02 -0.02)"/><path id="t1" d="M49.29,7.62a1.37,1.37,0,1,1-2.74.06,1.37,1.37,0,0,1,2.74-.06Z" transform="translate(-0.02 -0.02)"/></g><g id="sa-2" data-name="sa"><circle id="r-4" data-name="r" class="cls-4" cx="73.8" cy="12.42" r="8.84"/><path id="t" d="M69.82,13.76H71.7c.53.55.87,1.12,1.36,1.36a1.79,1.79,0,0,0,2.53-1,4.48,4.48,0,0,0,.07-3.28A1.68,1.68,0,0,0,73.8,9.63,1.61,1.61,0,0,0,72.08,11l.52.11-1.75,1.61-1.43-1.41a5.27,5.27,0,0,0,.56-.89c1-3,4.28-3.23,6.15-2.08a4.55,4.55,0,0,1,2.05,4.74A4.25,4.25,0,0,1,75,17a3.89,3.89,0,0,1-5.1-2.73A3.58,3.58,0,0,1,69.82,13.76Z" transform="translate(-0.02 -0.02)"/></g></svg>