<?xml version="1.0" encoding="utf-8"?>
<!-- Generator: Adobe Illustrator 23.0.5, SVG Export Plug-In . SVG Version: 6.00 Build 0)  -->
<svg version="1.1" id="run" xmlns="http://www.w3.org/2000/svg" xmlns:xlink="http://www.w3.org/1999/xlink" x="0px" y="0px"
	 viewBox="0 0 595.28 841.89" style="enable-background:new 0 0 595.28 841.89;" xml:space="preserve">
<style type="text/css">
	.st0{stroke:#000000;stroke-width:16;stroke-linecap:round;stroke-miterlimit:10;}
</style>
<circle cx="394.21" cy="290.57" r="27.43"/>
<polygon points="231.75,345.43 231.75,358.61 238.5,366 251.04,366 297.64,333.21 332.68,342.86 249.43,457.93 182.25,464.36 
	174.21,472.71 174.21,485.25 182.25,492.64 261,488.46 301.5,441.86 346.5,474.32 321.11,548.25 321.11,555.64 328.5,565.29 
	343.29,565.29 381.54,471.43 381.54,459.86 340.39,426.43 369,378.86 387.96,407.14 444.86,407.14 452.89,396.86 452.89,386.57 
	444.54,375.64 402.75,375.64 368.68,322.93 295.39,301.39 "/>
<line class="st0" x1="177.21" y1="383.14" x2="262.93" y2="383.14"/>
<line class="st0" x1="155.5" y1="408.86" x2="241.21" y2="408.86"/>
<line class="st0" x1="139.07" y1="435" x2="224.79" y2="435"/>
</svg>
