<svg id="default" xmlns="http://www.w3.org/2000/svg" viewBox="0 0 119.19 50"><defs><style>.cls-1,.cls-2{fill:#040000;}.cls-2{stroke:#231815;stroke-linecap:round;stroke-miterlimit:10;stroke-width:2.5px;}</style></defs><title>run_logo</title><circle id="round" class="cls-1" cx="43.47" cy="4.54" r="4.54"/><polygon id="body" class="cls-1" points="16.59 13.62 16.59 15.8 17.7 17.02 19.78 17.02 27.49 11.6 33.29 13.19 19.51 32.23 8.39 33.3 7.07 34.68 7.07 36.76 8.39 37.98 21.43 37.29 28.13 29.57 35.58 34.95 31.37 47.18 31.37 48.4 32.6 50 35.04 50 41.37 34.47 41.37 32.55 34.57 27.02 39.3 19.15 42.44 23.83 51.85 23.83 53.18 22.13 53.18 20.43 51.8 18.62 44.88 18.62 39.25 9.89 27.12 6.33 16.59 13.62"/><line id="line3" class="cls-2" x1="7.56" y1="19.86" x2="21.75" y2="19.86"/><line id="line2" class="cls-2" x1="3.97" y1="24.11" x2="18.15" y2="24.11"/><line id="line1" class="cls-2" x1="1.25" y1="28.44" x2="15.43" y2="28.44"/><g id="text"><path id="r" class="cls-1" d="M64,15c.49,0,.77.17.83.52s.12.69.17,1.06a3.82,3.82,0,0,1,.06.38c0,.2.09.3.19.3a.41.41,0,0,0,.3-.22l.23-.29a4.71,4.71,0,0,1,2.14-1.64,7.52,7.52,0,0,1,2.7-.48l1,0a3.66,3.66,0,0,1,1.14.25.75.75,0,0,1,.52.75,5.49,5.49,0,0,1-.18,1c-.11.5-.25,1.06-.41,1.68L72.27,20,72,21.17a1,1,0,0,1-1,.88,3.94,3.94,0,0,1-.6-.05,2.88,2.88,0,0,0-.59-.05A3.23,3.23,0,0,0,67.26,23a6.36,6.36,0,0,0-1.4,2.57,10.3,10.3,0,0,0-.43,2.78V33.9a.93.93,0,0,1-1,1.05H59.28a.94.94,0,0,1-1.05-1.07c0-2.17,0-4.35.05-6.52s.06-4.35.06-6.52c0-.81,0-1.61,0-2.4s0-1.59,0-2.38A.94.94,0,0,1,59.38,15Z" transform="translate(-0.36)"/><path id="u" class="cls-1" d="M90.25,35a1,1,0,0,1-1-.84c0-.17-.11-.47-.19-.9s-.18-.85-.25-1.27a5,5,0,0,1-.11-.83,1.53,1.53,0,0,1,.16-.61A10,10,0,0,1,86,34.12a6.87,6.87,0,0,1-4.37,1.4,8.09,8.09,0,0,1-3.28-.67,6,6,0,0,1-2.49-2,5.29,5.29,0,0,1-1-3.2c0-1.52,0-3,0-4.55s0-3,0-4.54c0-.75,0-1.51,0-2.26s0-1.52,0-2.27A.94.94,0,0,1,76,15h4.84a.93.93,0,0,1,1,1c0,1.82,0,3.64,0,5.45s0,3.64,0,5.46a2.07,2.07,0,0,0,.62,1.66,2.71,2.71,0,0,0,1.74.49,3.35,3.35,0,0,0,2.18-.69,4.64,4.64,0,0,0,1.35-1.77,9.27,9.27,0,0,0,.68-2.3,14.1,14.1,0,0,0,.2-2.25V16a.93.93,0,0,1,1-1h4.82a1,1,0,0,1,1.07,1.07c0,.78,0,1.55,0,2.33s0,1.55,0,2.32c0,1.49,0,3,0,4.47s0,3,.06,4.46c0,.71,0,1.41,0,2.12s0,1.41,0,2.12a.94.94,0,0,1-1,1.07ZM89,30.09l-.09.16Z" transform="translate(-0.36)"/><path id="n" class="cls-1" d="M105.07,15a.91.91,0,0,1,.84.43,2.85,2.85,0,0,1,.38,1c.08.37.14.71.2,1s.16.43.31.43a.26.26,0,0,0,.21-.1l.16-.18a8.67,8.67,0,0,1,2.61-2.32,7.31,7.31,0,0,1,6.49-.08,5.83,5.83,0,0,1,2.27,2,5.53,5.53,0,0,1,.85,3.06c0,1.53,0,3.07,0,4.61s0,3.08.06,4.62c0,.74,0,1.48,0,2.22s0,1.47,0,2.19A.94.94,0,0,1,118.49,35h-5a.92.92,0,0,1-1-1.05L112.39,23a2.47,2.47,0,0,0-.46-1.61,1.93,1.93,0,0,0-1.57-.56,2.79,2.79,0,0,0-2.31,1,6.28,6.28,0,0,0-1.17,2.65,18.62,18.62,0,0,0-.4,3.42c0,1.21,0,2.34,0,3.42s0,1.93,0,2.57-.39,1.05-1,1.05h-5a.94.94,0,0,1-1-1.07c0-.71,0-1.42,0-2.12s0-1.41,0-2.12c0-1.49,0-3,.06-4.46s0-3,0-4.47c0-.76,0-1.54,0-2.32s0-1.56,0-2.33A1,1,0,0,1,100.52,15Z" transform="translate(-0.36)"/></g></svg>