<?xml version="1.0" encoding="utf-8"?>
<!-- Generator: Adobe Illustrator 23.0.5, SVG Export Plug-In . SVG Version: 6.00 Build 0)  -->
<svg version="1.1" id="default" xmlns="http://www.w3.org/2000/svg" xmlns:xlink="http://www.w3.org/1999/xlink" x="0px" y="0px"
	 viewBox="0 0 119.2 50" style="enable-background:new 0 0 119.2 50;" xml:space="preserve">
<style type="text/css">
	.st0{fill:#FBFFFF;}
	.st1{fill:none;stroke:#FBFFFF;stroke-width:2.5;stroke-linecap:round;stroke-miterlimit:10;}
</style>
<title>run_logo</title>
<circle id="round" class="st0" cx="43.5" cy="4.5" r="4.5"/>
<polygon id="body" class="st0" points="16.6,13.6 16.6,15.8 17.7,17 19.8,17 27.5,11.6 33.3,13.2 19.5,32.2 8.4,33.3 7.1,34.7 
	7.1,36.8 8.4,38 21.4,37.3 28.1,29.6 35.6,34.9 31.4,47.2 31.4,48.4 32.6,50 35,50 41.4,34.5 41.4,32.5 34.6,27 39.3,19.1 
	42.4,23.8 51.8,23.8 53.2,22.1 53.2,20.4 51.8,18.6 44.9,18.6 39.3,9.9 27.1,6.3 "/>
<line id="line3" class="st1" x1="7.6" y1="19.9" x2="21.8" y2="19.9"/>
<line id="line2" class="st1" x1="4" y1="24.1" x2="18.1" y2="24.1"/>
<line id="line1" class="st1" x1="1.3" y1="28.4" x2="15.4" y2="28.4"/>
<g id="text">
	<path id="r" class="st0" d="M63.6,15c0.5,0,0.8,0.2,0.8,0.5s0.1,0.7,0.2,1.1c0,0.1,0,0.3,0.1,0.4c0,0.2,0.1,0.3,0.2,0.3
		c0.1,0,0.2-0.1,0.3-0.2l0.2-0.3c0.5-0.7,1.3-1.3,2.1-1.6c0.9-0.3,1.8-0.5,2.7-0.5h1c0.4,0,0.8,0.1,1.1,0.3c0.3,0.1,0.5,0.4,0.5,0.8
		c0,0.3-0.1,0.7-0.2,1c-0.1,0.5-0.3,1.1-0.4,1.7L71.9,20l-0.3,1.2c-0.1,0.5-0.5,0.9-1,0.9c-0.2,0-0.4,0-0.6,0c-0.2,0-0.4-0.1-0.6,0
		c-1,0-1.9,0.3-2.6,1c-0.7,0.7-1.1,1.6-1.4,2.6c-0.3,0.9-0.4,1.8-0.4,2.8v5.6c0.1,0.5-0.3,1-0.8,1c-0.1,0-0.1,0-0.2,0h-5.2
		c-0.5,0.1-1-0.3-1.1-0.8c0-0.1,0-0.2,0-0.3c0-2.2,0-4.4,0-6.5S58,23,58,20.8c0-0.8,0-1.6,0-2.4s0-1.6,0-2.4c-0.1-0.5,0.3-1,0.8-1.1
		c0.1,0,0.2,0,0.2,0H63.6z"/>
	<path id="u" class="st0" d="M89.9,35c-0.5,0-0.9-0.4-1-0.8c0-0.2-0.1-0.5-0.2-0.9s-0.2-0.8-0.3-1.3c-0.1-0.3-0.1-0.6-0.1-0.8
		c0-0.2,0.1-0.4,0.2-0.6c-0.7,1.4-1.6,2.6-2.9,3.6c-1.3,1-2.8,1.4-4.4,1.4c-1.1,0-2.2-0.2-3.3-0.7c-1-0.4-1.9-1.1-2.5-2
		c-0.7-0.9-1-2.1-1-3.2c0-1.5,0-3,0-4.5s0-3,0-4.5c0-0.8,0-1.5,0-2.3s0-1.5,0-2.3c-0.1-0.5,0.3-1,0.8-1c0.1,0,0.2,0,0.3,0h4.8
		c0.5,0,1,0.3,1,0.9c0,0,0,0.1,0,0.1c0,1.8,0,3.6,0,5.4s0,3.6,0,5.5c-0.1,0.6,0.2,1.2,0.6,1.7c0.5,0.4,1.1,0.5,1.7,0.5
		c0.8,0,1.6-0.2,2.2-0.7c0.6-0.5,1.1-1.1,1.3-1.8c0.3-0.7,0.6-1.5,0.7-2.3c0.1-0.7,0.2-1.5,0.2-2.3v-6c0-0.5,0.3-1,0.9-1
		c0,0,0.1,0,0.1,0h4.8c0.6,0,1,0.4,1.1,0.9c0,0,0,0.1,0,0.1c0,0.8,0,1.5,0,2.3s0,1.5,0,2.3c0,1.5,0,3,0,4.5s0,3,0.1,4.5
		c0,0.7,0,1.4,0,2.1s0,1.4,0,2.1c0.1,0.5-0.3,1-0.8,1.1c-0.1,0-0.1,0-0.2,0L89.9,35z M88.6,30.1l-0.1,0.2L88.6,30.1z"/>
	<path id="n" class="st0" d="M104.7,15c0.3,0,0.7,0.1,0.8,0.4c0.2,0.3,0.3,0.6,0.4,1c0.1,0.4,0.1,0.7,0.2,1s0.2,0.4,0.3,0.4
		c0.1,0,0.2,0,0.2-0.1l0.2-0.2c0.7-0.9,1.6-1.7,2.6-2.3c2-1,4.4-1.1,6.5-0.1c0.9,0.5,1.7,1.1,2.3,2c0.6,0.9,0.9,2,0.8,3.1
		c0,1.5,0,3.1,0,4.6s0,3.1,0.1,4.6c0,0.7,0,1.5,0,2.2s0,1.5,0,2.2c0.1,0.5-0.2,1-0.7,1.1c-0.1,0-0.1,0-0.2,0h-5c-0.5,0-1-0.3-1-0.8
		c0-0.1,0-0.2,0-0.2L112,23c0-0.6-0.1-1.1-0.5-1.6c-0.4-0.4-1-0.6-1.6-0.6c-0.9-0.1-1.7,0.3-2.3,1c-0.6,0.8-1,1.7-1.2,2.6
		c-0.2,1.1-0.4,2.3-0.4,3.4c0,1.2,0,2.3,0,3.4c0,1.1,0,1.9,0,2.6s-0.4,1-1,1h-5c-0.5,0-1-0.4-1-0.9c0-0.1,0-0.1,0-0.2
		c0-0.7,0-1.4,0-2.1s0-1.4,0-2.1c0-1.5,0-3,0.1-4.5s0-3,0-4.5c0-0.8,0-1.5,0-2.3s0-1.6,0-2.3c0-0.6,0.4-1,0.9-1c0,0,0,0,0,0H104.7z"
		/>
</g>
</svg>
