<svg id="default" xmlns="http://www.w3.org/2000/svg" viewBox="0 0 117.34 99.04"><defs><style>.cls-1{fill:#040000;}.cls-2{fill:#231815;}</style></defs><title>young</title><polygon id="_" data-name="|" class="cls-1" points="61.85 5.42 58.72 0 55.59 5.42 57.89 5.42 57.89 99.04 59.55 99.04 59.55 5.42 61.85 5.42"/><polygon id="_-" data-name="-" class="cls-1" points="102.82 52.65 108.24 49.52 102.82 46.39 102.82 48.69 9.2 48.69 9.2 50.35 102.82 50.35 102.82 52.65"/><path class="cls-2" d="M25.85,23.42c1.59,1.14,3.23,2.46,4.94,3.94L28,30.73q-2.1-2-4.69-4.34ZM27,32.36A38.48,38.48,0,0,0,31,33.82Q29.63,39,28,45.64c-1.36-.5-2.69-.93-4-1.28Q25.6,39.23,27,32.36Zm-.31-17.1q3.52,2.53,5.12,3.85L29,22.26c-1.46-1.44-3.07-2.86-4.82-4.28Zm8.69,30.38H31.29V21.07h4.13ZM33.2,16.73l2.87-2.19q1.84,2.07,3.44,4l-3.16,2.35Q34.79,18.73,33.2,16.73Zm3.15,19.34h4V32.39H37V29.14h3.31V25.51H36.6v-3.4H48v3.4H44.23v3.63h3.31v3.25H44.23v3.68h4v3.38H36.35Zm4.5-19.62H53.29V41.64q0,3.47-3.66,3.75-1.62.12-6,.12c-.27-1.35-.57-2.75-.9-4.19,2.16.11,3.84.16,5,.16A1.29,1.29,0,0,0,49.17,40V20.26H40.85Z" transform="translate(-0.18 -0.33)"/><path class="cls-2" d="M68.65,14.79q2,1.32,4.75,3.5L72,19.73h3.26a27.35,27.35,0,0,0,1.13-5h4.19a37.3,37.3,0,0,1-1.13,5h4.17L82.5,18.58a60.68,60.68,0,0,0,4.87-3.82l2.94,2.47c-1.13.91-2.18,1.74-3.17,2.5h5.17v3.44H78.2c-.32.78-.68,1.54-1.06,2.28H93.46v3.44h-8a16.85,16.85,0,0,0,8.26,4.4c-.85,1.46-1.57,2.74-2.15,3.85a21.54,21.54,0,0,1-6.67-4c0,.76-.09,1.8-.18,3.11a4.05,4.05,0,0,1-1.25,2.95,4.85,4.85,0,0,1-3.28,1q-2.37,0-3.93-.06a34,34,0,0,0-.66-3.5q1.5.12,3.72.12c.94,0,1.42-.39,1.47-1.16a5.75,5.75,0,0,0,.06-1H73.37v4.94a2,2,0,0,0,2.31,2.28h7.19a3.57,3.57,0,0,0,2-.5,2.13,2.13,0,0,0,.89-1.47c.11-.64.22-1.56.32-2.75a36.82,36.82,0,0,0,4,1.28,15,15,0,0,1-1.22,4.89,4,4,0,0,1-2.05,1.59,9.79,9.79,0,0,1-3.45.52H74.34c-3.38,0-5.06-1.4-5.06-4.21V34.62A46.75,46.75,0,0,1,64.5,38a41.76,41.76,0,0,0-2.19-3.78,28.46,28.46,0,0,0,7.34-5.28H62.56V25.45h9.89a18.64,18.64,0,0,0,1.34-2.28H64.37V19.73h4.92c-1-.83-2.07-1.63-3.17-2.4ZM73,31.17H83a22.15,22.15,0,0,1-1.66-2.28H75C74.38,29.67,73.72,30.43,73,31.17Z" transform="translate(-0.18 -0.33)"/><path class="cls-2" d="M23.48,72H24.6V57.83h2.5c.34-1,.68-2.11,1-3.44l4.22.37L31,57.83H35.1V81.14c0,2.64-1.2,4-3.62,4-1,0-2.08,0-3.13-.07-.14-.85-.4-2.08-.78-3.68,1.18.1,2.08.15,2.71.15a1.16,1.16,0,0,0,1-.37,2.31,2.31,0,0,0,.26-1.25V76.11A28.48,28.48,0,0,1,25,83.64,35.16,35.16,0,0,0,23,80a20.32,20.32,0,0,0,5.44-4.59h-5Zm8.06-10.72H28.17V63h3.37Zm-3.37,6.22h3.37V65.73H28.17Zm0,4.5h3.37V70.23H28.17Zm10.4-16.66c1.48,2.09,2.69,3.93,3.63,5.54l-3.44,2q-1.87-3.4-3.28-5.68Zm4.22-.93h4.06v9.15h6.38V80.58a4.92,4.92,0,0,1-.86,3.11,3.92,3.92,0,0,1-2.95,1.24,45.76,45.76,0,0,1-4.79.08c-.22-1.16-.53-2.56-.9-4.18q1.67.12,3.33.12a3.1,3.1,0,0,0,2-.49,2.23,2.23,0,0,0,.53-1.7V67.14H39.88v18h-3.5V63.51h6.41ZM41.13,69h7.25v9.85H43.79v1.25H41.13Zm4.6,6.5V72.33H43.79v3.15Zm5.34-20.12,3.35,2.15a58.45,58.45,0,0,1-4,5.5l-3.1-2.12A45.59,45.59,0,0,0,51.07,55.36Z" transform="translate(-0.18 -0.33)"/><path class="cls-2" d="M62.78,80.29h8.87V76.73H63.5V72.92h8.15V69.36H64.31V65.61h7.34V62.17h-7.9V58.36h7.9V54.92h4.44V80.29H80V54.82h4.43v3.5h7.91v3.82H84.46v3.43h7.29v3.75H84.46v3.6h8.16v3.81H84.46v3.56h8.88v3.88H62.78Z" transform="translate(-0.18 -0.33)"/><path class="cls-2" d="M62.84,9a9.69,9.69,0,0,0,1.68-3H63V4.48h1.61V3.16l-1.33.13c-.08-.53-.17-1-.27-1.39,1.32-.13,2.7-.29,4.15-.49l.35,1.37c-.42.07-.88.14-1.38.2v1.5h1.44V6H66.08V7.27l.43-.45c.44.38.92.84,1.43,1.36L67,9.11c-.34-.4-.65-.75-.92-1v4.57H64.56V8.78a13.78,13.78,0,0,1-1.18,2.05C63.25,10.31,63.07,9.69,62.84,9Zm3.86,2.77A13,13,0,0,0,69,8.5l1.43.73a26,26,0,0,1-2.36,3.45Q67.45,12.22,66.7,11.72Zm1.23-3.66V1.78h5.95V8.06Zm4.36-4.8H69.52V6.59h2.77Zm.12,5.21a38.36,38.36,0,0,1,2.16,3.3l-1.44.89c-.73-1.37-1.41-2.52-2-3.46Z" transform="translate(-0.18 -0.33)"/><path class="cls-2" d="M74.82,7.87A12.39,12.39,0,0,0,76.2,4.71H74.9V3.19h1.42V1.12h1.49V3.19H79V4.71H77.81V5.78c.57.36,1.07.69,1.5,1l-.68,1.4c-.21-.18-.48-.41-.82-.67v5.12H76.32V7.77A15.71,15.71,0,0,1,75.2,10C75.12,9.48,75,8.77,74.82,7.87Zm11.25-3V6.3a8.59,8.59,0,0,1-1.59,3.5,6.28,6.28,0,0,0,2,1.27c-.45.58-.8,1.07-1.06,1.48a11.13,11.13,0,0,1-2-1.62A11.9,11.9,0,0,1,81,12.7c-.32-.52-.64-1-1-1.44A10.51,10.51,0,0,0,82.4,9.7,11.1,11.1,0,0,1,81,7.11a10,10,0,0,1-2.09,5.55,11.71,11.71,0,0,0-1.09-1.37A5.86,5.86,0,0,0,79,9.4a10.58,10.58,0,0,0,.62-2.55,35,35,0,0,0,.18-3.7H79V1.71h6.38V3.06l-.9,1.85Zm-4.76-.79A14,14,0,0,0,83.4,8.6a5.75,5.75,0,0,0,1-2.27h-1.7V4.91l.82-1.76H81.32Z" transform="translate(-0.18 -0.33)"/><path class="cls-2" d="M63.86,90.45c.72.52,1.36,1,1.93,1.51l-1.11,1.22a24.47,24.47,0,0,0-1.84-1.63ZM64,93.61a14.19,14.19,0,0,0,1.57.52l-1,4.55c-.57-.19-1.11-.34-1.62-.47C63.35,96.87,63.71,95.33,64,93.61Zm0-6.27c.61.43,1.25.93,1.92,1.51l-1,1.19A24.33,24.33,0,0,0,63,88.38Zm3.14.07c.64.62,1.22,1.24,1.76,1.85l-1.21.91c-.48-.6-1-1.24-1.66-1.91Zm2.18-.26h1.63v3.21h3V97a1.64,1.64,0,0,1-.34,1.11,1.51,1.51,0,0,1-1,.48,20.05,20.05,0,0,1-2.3,0,15,15,0,0,0-.43-1.58c.63,0,1.18,0,1.63,0s.78-.25.78-.75v-.2H68v2.41H66.35v-8.2h3Zm2.94,4.62H68v.89h4.25ZM68,94.85h4.25V94H68Zm5-7.43,1.26.92c-.61.69-1.23,1.34-1.86,1.94l-1.1-.94A19.43,19.43,0,0,0,73,87.42Z" transform="translate(-0.18 -0.33)"/><path class="cls-2" d="M74.82,94a12.55,12.55,0,0,0,1.38-3.16H74.9V89.3h1.42V87.24h1.49V89.3H79v1.53H77.81V91.9c.57.36,1.07.69,1.5,1l-.68,1.41c-.21-.19-.48-.41-.82-.68v5.13H76.32V93.89a15.71,15.71,0,0,1-1.12,2.25C75.12,95.6,75,94.88,74.82,94Zm11.25-3v1.39a8.55,8.55,0,0,1-1.59,3.49,6.31,6.31,0,0,0,2,1.28c-.45.58-.8,1.07-1.06,1.48a11.57,11.57,0,0,1-2-1.62A12.69,12.69,0,0,1,81,98.82c-.32-.52-.64-1-1-1.44a10.87,10.87,0,0,0,2.39-1.57A10.9,10.9,0,0,1,81,93.22a10,10,0,0,1-2.09,5.55,12.61,12.61,0,0,0-1.09-1.37A5.7,5.7,0,0,0,79,95.52,10.7,10.7,0,0,0,79.6,93a35.11,35.11,0,0,0,.18-3.7H79V87.83h6.38v1.35L84.44,91Zm-4.76-.79a14.14,14.14,0,0,0,2.09,4.48,5.75,5.75,0,0,0,1-2.27h-1.7V91l.82-1.76H81.32Z" transform="translate(-0.18 -0.33)"/><path class="cls-2" d="M.25,55.65H1.44V53.59H2.93v2.06h1V57.1h-1v1.68l.95-.24c0,.62,0,1.14,0,1.57l-1,.26v3a1.93,1.93,0,0,1-.22,1,.94.94,0,0,1-.71.43,13.26,13.26,0,0,1-1.47.06c-.08-.47-.18-1-.3-1.51l.68,0a.71.71,0,0,0,.43-.1.51.51,0,0,0,.1-.37V60.79l-1.13.32L.18,59.39l1.26-.27v-2H.25ZM5.74,62.2l1.82-1c.05.54.11,1.06.2,1.55L7.22,63c.37.5.68.94.94,1.33l-1.32.76c-.28-.47-.58-.93-.88-1.38a9.17,9.17,0,0,0-1.41.93l-.82-1.34A1.84,1.84,0,0,0,4.23,62V54.49q3.31-.2,6.79-.66l.37,1.46c-.73.09-1.51.17-2.35.25,0,.81,0,1.56,0,2.24h2.65v1.46H9.15A14.45,14.45,0,0,0,9.59,62c.21.7.42,1,.64,1s.17-.11.23-.36a14.91,14.91,0,0,0,.2-1.79,12.06,12.06,0,0,0,1.25.61,6.24,6.24,0,0,1-.67,2.82,1.24,1.24,0,0,1-.94.49c-.81,0-1.42-.5-1.83-1.51a13.85,13.85,0,0,1-.81-4.06H5.74Zm0-6.37v2H7.56c0-.65,0-1.35,0-2.1Z" transform="translate(-0.18 -0.33)"/><path class="cls-2" d="M14,53.39l1.42.19c-.1.23-.2.46-.31.69h2.11v1.1l-.6,1.06h1v7a1.9,1.9,0,0,1-.24,1,.94.94,0,0,1-.67.45,6.3,6.3,0,0,1-1,.07c-.05-.23-.09-.47-.14-.7h-.9V62h-.69a9.39,9.39,0,0,1-.67,3.17,13.59,13.59,0,0,0-1.14-1,13,13,0,0,0,.68-4.88V57.59l-.23.22a13.88,13.88,0,0,0-.41-1.63A8.77,8.77,0,0,0,14,53.39Zm-.21,3h1.36l.57-1H14.49A10.78,10.78,0,0,1,13.79,56.43Zm.2,4.45h.62V59.77H14Q14,60.35,14,60.88Zm0-2.21h.59V57.56H14Zm2.38-1.11h-.67v1.11h.67Zm-.67,3.32h.67V59.77h-.67ZM16.4,62h-.67v1.7c.28,0,.46,0,.54-.11a.73.73,0,0,0,.13-.5Zm1.68-6.41h2v-2h1.38v2h2v5.28h-2v2l.74-.07-.32-1.12,1.09-.31c.4,1.22.71,2.32.94,3.28L22.71,65l-.2-.84q-2,.19-4.53.51l-.23-1.53L20,63V60.85h-.74v.66H18.08Zm1.21,4H20V56.88h-.74Zm2.86,0V56.88h-.74v2.66Z" transform="translate(-0.18 -0.33)"/><path class="cls-2" d="M101.18,53.47l-.42.51a11.72,11.72,0,0,0,4.77,3.4c-.41.53-.77,1-1.07,1.4A14,14,0,0,1,103,58v.65H96.38V58c-.46.29-.94.59-1.47.9a11.86,11.86,0,0,0-1-1.38,13.42,13.42,0,0,0,5.09-4Zm-5.83,11.6V59.63h8.72v5.44h-1.6v-.54H96.94v.54Zm7.12-3.91H96.94V63h5.53Zm-2.78-6a12.33,12.33,0,0,1-2.18,2h4.28A14.07,14.07,0,0,1,99.69,55.17Z" transform="translate(-0.18 -0.33)"/><path class="cls-2" d="M108.18,53.52l1.57.45c-.25.79-.53,1.55-.84,2.29V65h-1.6V59.38q-.48.78-1,1.53c-.08-.6-.22-1.33-.4-2.18A20.22,20.22,0,0,0,108.18,53.52Zm8.67,6.19h-3.18v1.45h3.45v1.47h-3.45V65H112V56.8h-.34A14.23,14.23,0,0,1,110,59.61c-.22-.43-.53-.94-.9-1.52a16.56,16.56,0,0,0,2.09-4.64l1.52.36c-.15.51-.31,1-.47,1.48h5.24V56.8h-3.85v1.44h3.18Z" transform="translate(-0.18 -0.33)"/></svg>