<?xml version="1.0" encoding="utf-8"?>
<!-- Generator: Adobe Illustrator 23.0.5, SVG Export Plug-In . SVG Version: 6.00 Build 0)  -->
<svg version="1.1" id="default" xmlns="http://www.w3.org/2000/svg" xmlns:xlink="http://www.w3.org/1999/xlink" x="0px" y="0px"
	 viewBox="0 0 117.3 99" style="enable-background:new 0 0 117.3 99;" xml:space="preserve">
<polygon id="_" points="61.8,5.4 58.7,0 55.6,5.4 57.9,5.4 57.9,99 59.5,99 59.5,5.4 "/>
<polygon id="_-" points="102.8,52.6 108.2,49.5 102.8,46.4 102.8,48.7 9.2,48.7 9.2,50.3 102.8,50.3 "/>
<path d="M25.7,23.1c1.6,1.1,3.2,2.5,4.9,3.9l-2.8,3.4c-1.4-1.3-3-2.8-4.7-4.3L25.7,23.1z M26.8,32c1.3,0.6,2.6,1,4,1.5
	c-0.9,3.5-1.9,7.4-3,11.8c-1.4-0.5-2.7-0.9-4-1.3C24.9,40.6,25.9,36.6,26.8,32z M26.5,14.9c2.3,1.7,4.1,3,5.1,3.8l-2.8,3.1
	c-1.5-1.4-3.1-2.9-4.8-4.3L26.5,14.9z M35.2,45.3h-4.1V20.7h4.1L35.2,45.3z M33,16.4l2.9-2.2c1.2,1.4,2.4,2.7,3.4,4l-3.2,2.4
	C35.1,19.1,34.1,17.7,33,16.4z M36.2,35.7h4v-3.7h-3.4v-3.3h3.3v-3.6h-3.7v-3.4h11.4v3.4H44v3.6h3.3v3.3H44v3.7h4v3.4H36.2
	L36.2,35.7z M40.7,16.1h12.4v25.2c0,2.3-1.2,3.6-3.7,3.8c-1.1,0.1-3.1,0.1-6,0.1c-0.3-1.3-0.6-2.8-0.9-4.2c2.2,0.1,3.8,0.2,5,0.2
	c0.7,0.1,1.4-0.4,1.4-1.1c0-0.1,0-0.2,0-0.4V19.9h-8.3L40.7,16.1z"/>
<path d="M68.5,14.5c1.3,0.9,2.9,2,4.8,3.5l-1.4,1.4h3.3c0.5-1.6,0.9-3.3,1.1-5h4.2c-0.3,1.7-0.6,3.4-1.1,5h4.2l-1.1-1.1
	c1.7-1.2,3.3-2.5,4.9-3.8l2.9,2.5C89,17.8,88,18.6,87,19.4h5.2v3.4H78c-0.3,0.8-0.7,1.5-1.1,2.3h16.3v3.4h-8
	c2.3,2.2,5.1,3.7,8.3,4.4c-0.8,1.5-1.6,2.7-2.2,3.8c-2.4-0.9-4.7-2.3-6.7-4c0,0.8-0.1,1.8-0.2,3.1c0,1.1-0.4,2.2-1.3,3
	c-0.9,0.7-2.1,1.1-3.3,1c-1.6,0-2.9,0-3.9-0.1c-0.2-1.2-0.4-2.3-0.7-3.5c1,0.1,2.2,0.1,3.7,0.1c0.9,0,1.4-0.4,1.5-1.2
	c0-0.3,0.1-0.7,0.1-1h-7.5v4.9c-0.2,1.1,0.6,2.1,1.7,2.3c0.2,0,0.4,0,0.6,0h7.2c0.7,0,1.4-0.1,2-0.5c0.5-0.3,0.8-0.9,0.9-1.5
	c0.1-0.6,0.2-1.6,0.3-2.8c1.3,0.5,2.6,0.9,4,1.3c-0.1,1.7-0.5,3.3-1.2,4.9c-0.5,0.7-1.2,1.3-2.1,1.6c-1.1,0.4-2.3,0.6-3.4,0.5h-9
	c-3.4,0-5.1-1.4-5.1-4.2v-6.5c-1.5,1.2-3.1,2.4-4.8,3.4c-0.7-1.3-1.4-2.6-2.2-3.8c2.7-1.4,5.2-3.1,7.3-5.3h-7.1v-3.5h9.9
	c0.5-0.7,0.9-1.5,1.3-2.3h-9.4v-3.4h4.9c-1-0.8-2.1-1.6-3.2-2.4L68.5,14.5z M72.8,30.8h10c-0.6-0.7-1.2-1.5-1.7-2.3h-6.3
	C74.2,29.3,73.5,30.1,72.8,30.8z"/>
<path d="M23.3,71.7h1.1V57.5h2.5c0.3-1,0.7-2.1,1-3.4l4.2,0.4l-1.3,3.1h4.1v23.3c0,2.6-1.2,4-3.6,4c-1,0-2.1,0-3.1-0.1
	c-0.1-0.8-0.4-2.1-0.8-3.7c1.2,0.1,2.1,0.2,2.7,0.2c0.4,0,0.7-0.1,1-0.4c0.2-0.4,0.3-0.8,0.3-1.3v-3.8c-1.7,2.9-3.9,5.4-6.5,7.5
	c-0.6-1.3-1.3-2.5-2-3.6c2.1-1.2,3.9-2.8,5.4-4.6h-5L23.3,71.7z M31.4,60.9H28v1.7h3.4V60.9z M28,67.2h3.4v-1.8H28L28,67.2z
	 M28,71.7h3.4v-1.8H28L28,71.7z M38.4,55c1.5,2.1,2.7,3.9,3.6,5.5l-3.4,2c-1.2-2.3-2.3-4.2-3.3-5.7L38.4,55z M42.6,54.1h4.1v9.1h6.4
	v17c0.1,1.1-0.2,2.2-0.9,3.1c-0.8,0.8-1.8,1.3-3,1.2c-1.6,0.1-3.2,0.1-4.8,0.1c-0.2-1.2-0.5-2.6-0.9-4.2c1.1,0.1,2.2,0.1,3.3,0.1
	c0.7,0.1,1.4-0.1,2-0.5c0.4-0.5,0.6-1.1,0.5-1.7V66.8h-9.7v18h-3.5V63.2h6.4V54.1z M41,68.7h7.3v9.8h-4.6v1.3H41V68.7z M45.5,75.2
	V72h-1.9v3.2L45.5,75.2z M50.9,55l3.3,2.2c-1.2,1.9-2.6,3.7-4,5.5l-3.1-2.1C48.5,58.8,49.8,57,50.9,55L50.9,55z"/>
<path d="M62.6,80h8.9v-3.6h-8.2v-3.8h8.2V69h-7.3v-3.8h7.3v-3.4h-7.9V58h7.9v-3.4h4.4V80h3.9V54.5h4.4V58h7.9v3.8h-7.9v3.4h7.3V69
	h-7.3v3.6h8.2v3.8h-8.2V80h8.9v3.9H62.6V80z"/>
<path d="M62.7,8.7c0.7-0.9,1.3-1.9,1.7-3h-1.5V4.1h1.6V2.8L63.1,3c-0.1-0.5-0.2-1-0.3-1.4c1.3-0.1,2.7-0.3,4.1-0.5l0.3,1.4
	c-0.4,0.1-0.9,0.1-1.4,0.2v1.5h1.4v1.5h-1.5v1.3l0.4-0.4c0.4,0.4,0.9,0.8,1.4,1.4l-0.9,0.9c-0.3-0.4-0.7-0.8-0.9-1v4.6h-1.5V8.4
	c-0.3,0.7-0.7,1.4-1.2,2.1C63.1,10,62.9,9.4,62.7,8.7z M66.5,11.4c0.9-1,1.7-2.1,2.3-3.3l1.4,0.7c-0.7,1.2-1.5,2.4-2.4,3.4
	C67.5,12,67,11.7,66.5,11.4L66.5,11.4z M67.8,7.8V1.4h5.9v6.3L67.8,7.8z M72.1,3h-2.8v3.3h2.8L72.1,3z M72.2,8.2
	c0.8,1.1,1.5,2.2,2.2,3.3L73,12.4c-0.7-1.4-1.4-2.5-2-3.5L72.2,8.2z"/>
<path d="M74.6,7.5c0.6-1,1.1-2,1.4-3.2h-1.3V2.9h1.4V0.8h1.5v2.1h1.2v1.5h-1.2v1.1c0.6,0.4,1.1,0.7,1.5,1l-0.7,1.4
	c-0.2-0.2-0.5-0.4-0.8-0.7v5.1h-1.5V7.4C75.8,8.2,75.5,9,75,9.7C74.9,9.1,74.8,8.4,74.6,7.5z M85.9,4.5V6c-0.3,1.3-0.8,2.5-1.6,3.5
	c0.6,0.5,1.3,1,2,1.3c-0.4,0.6-0.8,1.1-1.1,1.5c-0.7-0.5-1.4-1-2-1.6c-0.7,0.7-1.5,1.3-2.4,1.8c-0.3-0.5-0.6-1-1-1.4
	c0.9-0.4,1.7-0.9,2.4-1.6c-0.6-0.8-1.1-1.7-1.4-2.6c-0.1,2-0.8,4-2.1,5.5c-0.3-0.5-0.7-0.9-1.1-1.4c0.5-0.5,0.9-1.2,1.2-1.9
	c0.3-0.8,0.5-1.7,0.6-2.6c0.1-1.2,0.2-2.5,0.2-3.7h-0.8V1.4h6.4v1.3l-0.9,1.9L85.9,4.5z M81.1,3.7c0.4,1.6,1.1,3.2,2.1,4.5
	c0.5-0.7,0.8-1.4,1-2.3h-1.7V4.6l0.8-1.8h-2.2L81.1,3.7z"/>
<path d="M63.7,90.1c0.7,0.5,1.4,1,1.9,1.5l-1.1,1.2c-0.6-0.6-1.2-1.1-1.8-1.6L63.7,90.1z M63.8,93.3c0.5,0.2,1,0.4,1.6,0.5l-1,4.6
	c-0.6-0.2-1.1-0.3-1.6-0.5C63.2,96.5,63.5,95,63.8,93.3z M63.8,87c0.6,0.4,1.3,0.9,1.9,1.5l-1,1.2c-0.6-0.6-1.3-1.1-1.9-1.7L63.8,87
	z M67,87.1c0.6,0.6,1.2,1.2,1.8,1.8l-1.2,0.9c-0.5-0.6-1-1.2-1.7-1.9L67,87.1z M69.1,86.8h1.6V90h3v6.6c0,0.4-0.1,0.8-0.3,1.1
	c-0.3,0.3-0.6,0.5-1,0.5c-0.8,0-1.5,0-2.3,0c-0.1-0.5-0.3-1.1-0.4-1.6c0.6,0,1.2,0,1.6,0s0.8-0.3,0.8-0.8v-0.2h-4.3v2.4h-1.7v-8.2h3
	L69.1,86.8z M72.1,91.4h-4.3v0.9h4.3L72.1,91.4z M67.8,94.5h4.3v-0.8h-4.3V94.5z M72.8,87.1l1.3,0.9c-0.6,0.7-1.2,1.3-1.9,1.9
	L71.1,89C71.7,88.4,72.3,87.8,72.8,87.1z"/>
<path d="M74.6,93.7c0.6-1,1.1-2,1.4-3.2h-1.3V89h1.4v-2.1h1.5V89h1.2v1.5h-1.2v1.1c0.6,0.4,1.1,0.7,1.5,1L78.4,94
	c-0.2-0.2-0.5-0.4-0.8-0.7v5.1h-1.5v-4.9c-0.3,0.8-0.7,1.5-1.1,2.3C74.9,95.3,74.8,94.5,74.6,93.7z M85.9,90.7v1.4
	c-0.3,1.3-0.8,2.5-1.6,3.5c0.6,0.5,1.3,1,2,1.3c-0.4,0.6-0.8,1.1-1.1,1.5c-0.7-0.5-1.4-1-2-1.6c-0.7,0.7-1.5,1.3-2.4,1.8
	c-0.3-0.5-0.6-1-1-1.4c0.9-0.4,1.7-0.9,2.4-1.6c-0.6-0.8-1-1.7-1.4-2.6c-0.1,2-0.8,4-2.1,5.6c-0.3-0.5-0.7-0.9-1.1-1.4
	c0.5-0.5,0.9-1.2,1.2-1.9c0.3-0.8,0.5-1.7,0.6-2.5c0.1-1.2,0.2-2.5,0.2-3.7h-0.8v-1.5h6.4v1.3l-0.9,1.8H85.9z M81.1,89.9
	c0.4,1.6,1.1,3.1,2.1,4.5c0.5-0.7,0.8-1.4,1-2.3h-1.7v-1.4l0.8-1.8h-2.2L81.1,89.9z"/>
<path d="M0.1,55.3h1.2v-2.1h1.5v2.1h1v1.4h-1v1.7l1-0.2c0,0.6,0,1.1,0,1.6l-1,0.3v3c0,0.3-0.1,0.7-0.2,1c-0.2,0.2-0.4,0.4-0.7,0.4
	c-0.5,0-1,0.1-1.5,0.1c-0.1-0.5-0.2-1-0.3-1.5h0.7c0.2,0,0.3,0,0.4-0.1c0.1-0.1,0.1-0.2,0.1-0.4v-2.1l-1.1,0.3L0,59.1l1.3-0.3v-2
	H0.1V55.3z M5.6,61.9l1.8-1c0.1,0.5,0.1,1.1,0.2,1.5L7,62.7C7.4,63.2,7.7,63.6,8,64l-1.3,0.8c-0.3-0.5-0.6-0.9-0.9-1.4
	c-0.5,0.3-1,0.6-1.4,0.9L3.5,63c0.3-0.4,0.5-0.8,0.5-1.3v-7.5c2.2-0.1,4.5-0.4,6.8-0.7l0.4,1.5c-0.7,0.1-1.5,0.2-2.3,0.3
	c0,0.8,0,1.6,0,2.2h2.6v1.5H9c0.1,0.9,0.2,1.9,0.4,2.8c0.2,0.7,0.4,1,0.6,1s0.2-0.1,0.2-0.4c0.1-0.6,0.2-1.2,0.2-1.8
	c0.4,0.2,0.8,0.4,1.3,0.6c0,1-0.2,1.9-0.7,2.8c-0.2,0.3-0.6,0.5-0.9,0.5c-0.8,0-1.4-0.5-1.8-1.5c-0.5-1.3-0.7-2.7-0.8-4.1H5.6V61.9z
	 M5.6,55.5v2h1.8c0-0.7,0-1.3,0-2.1L5.6,55.5z"/>
<path d="M13.8,53.1l1.4,0.2c-0.1,0.2-0.2,0.5-0.3,0.7H17V55l-0.6,1.1h1v7c0,0.3-0.1,0.7-0.2,1c-0.1,0.2-0.4,0.4-0.7,0.4
	c-0.3,0-0.7,0.1-1,0.1c-0.1-0.2-0.1-0.5-0.1-0.7h-0.9v-2.2h-0.7c0,1.1-0.3,2.2-0.7,3.2c-0.4-0.4-0.7-0.7-1.1-1
	c0.5-1.6,0.8-3.2,0.7-4.9v-1.7l-0.2,0.2c-0.1-0.6-0.2-1.1-0.4-1.6C12.8,55,13.4,54.1,13.8,53.1z M13.6,56.1H15l0.6-1h-1.2
	C14.1,55.4,13.9,55.8,13.6,56.1L13.6,56.1z M13.8,60.5h0.6v-1.1h-0.6C13.8,59.8,13.8,60.2,13.8,60.5L13.8,60.5z M13.8,58.3h0.6v-1.1
	h-0.6L13.8,58.3z M16.2,57.2h-0.7v1.1h0.7V57.2z M15.5,60.5h0.7v-1.1h-0.7V60.5z M16.2,61.7h-0.7v1.7c0.3,0,0.5,0,0.5-0.1
	c0.1-0.1,0.1-0.3,0.1-0.5V61.7z M17.9,55.3h2v-2h1.4v2h2v5.3h-2v2l0.7-0.1l-0.3-1.1l1.1-0.3c0.4,1.2,0.7,2.3,0.9,3.3l-1.2,0.3
	l-0.2-0.8c-1.3,0.1-2.8,0.3-4.5,0.5l-0.2-1.5l2.3-0.1v-2.2h-0.7v0.7h-1.2V55.3z M19.1,59.3h0.7v-2.7h-0.7L19.1,59.3z M22,59.3v-2.7
	h-0.7v2.7L22,59.3z"/>
<path d="M101,53.1l-0.4,0.5c1.3,1.5,2.9,2.7,4.8,3.4c-0.4,0.5-0.8,1-1.1,1.4c-0.5-0.2-1-0.5-1.5-0.8v0.7h-6.6v-0.7
	c-0.5,0.3-0.9,0.6-1.5,0.9c-0.3-0.5-0.6-0.9-1-1.4c2-0.9,3.7-2.3,5.1-4L101,53.1z M95.2,64.7v-5.4h8.7v5.4h-1.6v-0.5h-5.5v0.5H95.2z
	 M102.3,60.8h-5.5v1.8h5.5V60.8z M99.5,54.8c-0.6,0.8-1.4,1.4-2.2,2h4.3C100.8,56.2,100.1,55.6,99.5,54.8L99.5,54.8z"/>
<path d="M108,53.2l1.6,0.5c-0.3,0.8-0.5,1.5-0.8,2.3v8.7h-1.6V59c-0.3,0.5-0.7,1-1,1.5c-0.1-0.6-0.2-1.3-0.4-2.2
	C106.7,56.8,107.5,55,108,53.2z M116.7,59.4h-3.2v1.5h3.4v1.5h-3.4v2.4h-1.7v-8.2h-0.3c-0.4,1-1,1.9-1.7,2.8
	c-0.2-0.4-0.5-0.9-0.9-1.5c0.9-1.4,1.6-3,2.1-4.6l1.5,0.4c-0.2,0.5-0.3,1-0.5,1.5h5.2v1.5h-3.8v1.4h3.2L116.7,59.4z"/>
</svg>
