<svg id="default" xmlns="http://www.w3.org/2000/svg" viewBox="0 0 168.01 60"><defs><style>.cls-1{fill:#040000;}</style></defs><title>yxproj_logo</title><path id="logo" d="M.21,0C5.62,7.16,12.28,13,19.38,18.4c9,6.82,18.88,11.93,29.14,16.46.3.13.63.22,1.22.41l-3.51-5,.25-.24C47.73,31,49,32,50.23,33a22.57,22.57,0,0,1,5.65,6.79A14.74,14.74,0,0,1,56,53.15l-.48,1.11a14,14,0,0,0,2.4-5.34,16.32,16.32,0,0,0-1.18-10.66c-2.3-5.2-5.71-9.64-9.35-13.93A144.76,144.76,0,0,0,32.25,9.23a2.25,2.25,0,0,1-.7-.93c.21.11.45.19.65.32A105.92,105.92,0,0,1,50.57,23.77,39.92,39.92,0,0,1,60.84,41.89C63,50.8,56.11,59.6,46.94,60c-4.9.2-9.45-1.11-13.93-2.88a3.45,3.45,0,0,1-.42-.3c3.63.39,7.09,1.25,10.47-1.22a17.46,17.46,0,0,0-1.69-.68A43.29,43.29,0,0,1,26,47.45a46.53,46.53,0,0,1-9.48-10,2.57,2.57,0,0,1-.14-.47,59.19,59.19,0,0,0,14.86,9.44c5.39,2.35,10.94,3.84,16.93,2.88a43.92,43.92,0,0,1-21.55-8.83,58,58,0,0,0,15.81,4.77c-13.19-4.8-24.17-12.39-31.31-24.85a94.63,94.63,0,0,0,31.68,19c-1.59-.93-3.2-1.82-4.77-2.8A132.83,132.83,0,0,1,8.4,12.22a61.16,61.16,0,0,1-7.81-11A6.33,6.33,0,0,0,0,.41Z"/><g id="text"><path id="y" class="cls-1" d="M64.77,28a1.72,1.72,0,0,1-.48-.08.35.35,0,0,1-.26-.39.67.67,0,0,1,0-.24l.09-.22q.61-1.41,1.26-2.79c.44-.93.86-1.86,1.27-2.79v-.14L64,15.12Q62.68,12,61.35,8.91a1.22,1.22,0,0,1-.11-.45.35.35,0,0,1,.25-.38A1.42,1.42,0,0,1,62,8h2.82a.55.55,0,0,1,.37.1,1,1,0,0,1,.24.31c.18.37.34.75.49,1.15s.29.78.43,1.16c.37.93.74,1.87,1.1,2.81s.74,1.87,1.14,2.8l.08.13c0,.06.07.09.11.09a.14.14,0,0,0,.11-.08.88.88,0,0,0,.07-.13c.43-.92.84-1.86,1.24-2.81s.8-1.89,1.21-2.83c.16-.37.32-.76.47-1.17a10.94,10.94,0,0,1,.53-1.15A.67.67,0,0,1,73,8h2a1.34,1.34,0,0,1,.48.08.35.35,0,0,1,.24.38,1.22,1.22,0,0,1-.11.45c-.79,1.92-1.58,3.82-2.39,5.72s-1.62,3.81-2.41,5.72c-.34.81-.67,1.61-1,2.41l-1,2.4c-.18.39-.35.8-.51,1.2s-.34.81-.53,1.2a.62.62,0,0,1-.61.4Z"/><path id="u" class="cls-1" d="M90.13,22.61a.62.62,0,0,1-.66-.58l-.09-.65c0-.22,0-.44-.07-.66a.8.8,0,0,0,0-.16c0-.08-.06-.13-.11-.13a.21.21,0,0,0-.14.08l-.11.12a6,6,0,0,1-2.58,1.75,9.31,9.31,0,0,1-3.12.54,7.21,7.21,0,0,1-2.52-.46,4.74,4.74,0,0,1-2-1.41,3.7,3.7,0,0,1-.78-2.42c0-1.25,0-2.49,0-3.75s0-2.49,0-3.73V8.66A.58.58,0,0,1,78.63,8h2.48a.58.58,0,0,1,.66.66v2.53c0,1,0,2,0,3s0,2,0,3.06a2.06,2.06,0,0,0,.83,1.8,3.52,3.52,0,0,0,2,.52A3.93,3.93,0,0,0,87,18.84a5.1,5.1,0,0,0,1.55-2,6.2,6.2,0,0,0,.54-2.54V8.66A.58.58,0,0,1,89.76,8h2.47a.58.58,0,0,1,.66.66c0,.46,0,.92,0,1.38s0,.93,0,1.39c0,1.18,0,2.37,0,3.56s0,2.38,0,3.56c0,.56,0,1.12,0,1.68s0,1.13,0,1.7a.59.59,0,0,1-.66.68Z"/><path id="x" class="cls-1" d="M103.86,14.94a5.8,5.8,0,0,0,.38.68c.25.42.57.93,1,1.54s.77,1.22,1.18,1.85l1,1.66c.3.48.5.79.58.93a1.75,1.75,0,0,1,.16.27.82.82,0,0,1,.07.31.35.35,0,0,1-.28.37,2.5,2.5,0,0,1-.51.06h-3.1a.62.62,0,0,1-.54-.31c-.44-.62-.86-1.26-1.25-1.93s-.79-1.32-1.2-1.95c-.07-.1-.12-.14-.16-.14s-.17.17-.37.53-.44.78-.71,1.27l-.72,1.37c-.22.42-.37.69-.46.82a.64.64,0,0,1-.58.34H96.09a2.58,2.58,0,0,1-.5-.06.35.35,0,0,1-.29-.37.59.59,0,0,1,.09-.31l.14-.27.54-.88c.28-.46.61-1,1-1.57s.73-1.18,1.08-1.76L99,15.93a3.74,3.74,0,0,0,.36-.65A3,3,0,0,0,99,14.5c-.28-.45-.62-1-1-1.61L96.71,11c-.41-.63-.76-1.19-1-1.66a2.89,2.89,0,0,1-.42-.89.34.34,0,0,1,.29-.37,2.49,2.49,0,0,1,.5-.06h3.12a.66.66,0,0,1,.57.3c.08.11.24.36.48.77l.78,1.3c.29.47.54.88.76,1.22s.35.51.39.51.13,0,.18-.17a15.07,15.07,0,0,0,.8-1.78,14.09,14.09,0,0,1,.8-1.77.6.6,0,0,1,.59-.38h2.19a1.88,1.88,0,0,1,.5.07.35.35,0,0,1,.28.36,2.65,2.65,0,0,1-.37.85q-.36.69-.9,1.59c-.36.61-.72,1.21-1.09,1.81s-.67,1.1-.91,1.53A3.34,3.34,0,0,0,103.86,14.94Z"/><path id="i" class="cls-1" d="M110.34,2.5A2,2,0,0,1,111,1a2.13,2.13,0,0,1,1.55-.64,2.22,2.22,0,0,1,1.58.65,2.1,2.1,0,0,1,.69,1.58,2.1,2.1,0,0,1-.65,1.53,2.13,2.13,0,0,1-1.56.66A2.21,2.21,0,0,1,111,4.09,2.14,2.14,0,0,1,110.34,2.5Zm.24,9.72V8.66a.58.58,0,0,1,.66-.66h2.48a.58.58,0,0,1,.66.66q0,3.31,0,6.64t0,6.65a.58.58,0,0,1-.66.66h-2.54a.58.58,0,0,1-.66-.66c0-1.62,0-3.24,0-4.87S110.58,13.84,110.58,12.22Z"/><path id="a" class="cls-1" d="M123.42,22.92a6,6,0,0,1-3.51-1,6.2,6.2,0,0,1-2.14-2.65,9.06,9.06,0,0,1-.71-3.59v-.26a9.54,9.54,0,0,1,.84-3.82,7.19,7.19,0,0,1,2.36-2.89A6.33,6.33,0,0,1,124,7.61a6.2,6.2,0,0,1,2.52.51,8.44,8.44,0,0,1,2.19,1.37.3.3,0,0,0,.19.12c.13,0,.19-.14.19-.41a2.49,2.49,0,0,1,.11-.8.58.58,0,0,1,.64-.4h2.27a.58.58,0,0,1,.66.66c0,.46,0,.92,0,1.38s0,.93,0,1.39c0,1.18,0,2.37,0,3.56s0,2.38,0,3.56c0,.56,0,1.12,0,1.68s0,1.13,0,1.7a.59.59,0,0,1-.66.68h-2.53c-.29,0-.48-.09-.56-.28a1.41,1.41,0,0,1-.12-.67q0-.39,0-.69a1,1,0,0,0,0-.16c0-.08-.05-.12-.1-.12a.21.21,0,0,0-.12,0l-.1.08a9.93,9.93,0,0,1-2.44,1.52A6.81,6.81,0,0,1,123.42,22.92Zm1.65-3.44a4.69,4.69,0,0,0,2.11-.47,3.43,3.43,0,0,0,1.53-1.51l.15-.33a1.21,1.21,0,0,0,.12-.33c0-.37,0-.75,0-1.13V14.6c0-.17,0-.36,0-.57a3.4,3.4,0,0,0,0-.56,2.35,2.35,0,0,0-.13-.33l-.15-.33a3.57,3.57,0,0,0-1.59-1.51,5,5,0,0,0-2.16-.5,3.7,3.7,0,0,0-2.1.6A4.11,4.11,0,0,0,121.43,13a4.65,4.65,0,0,0,0,4.29,4.22,4.22,0,0,0,1.47,1.61A3.83,3.83,0,0,0,125.07,19.48Z"/><path id="n" class="cls-1" d="M138.89,8a.58.58,0,0,1,.66.58c0,.21.06.43.08.64l.07.64a1.29,1.29,0,0,0,0,.19c0,.1.06.15.11.15a.18.18,0,0,0,.15-.09l.11-.15a5.53,5.53,0,0,1,2.35-1.79,8,8,0,0,1,2.92-.55,5.1,5.1,0,0,1,2.31.53,4.35,4.35,0,0,1,1.7,1.48,4,4,0,0,1,.65,2.28c0,1.67,0,3.34.05,5s.06,3.35.06,5a.59.59,0,0,1-.66.68H147q-.62,0-.66-.66a12.91,12.91,0,0,1,0-1.39c0-.47,0-.94,0-1.4,0-1,0-2,0-2.95V13.28a2.17,2.17,0,0,0-.66-1.72,2.61,2.61,0,0,0-1.76-.57,3.14,3.14,0,0,0-2.25.84,5.18,5.18,0,0,0-1.3,2.06,7.16,7.16,0,0,0-.43,2.4c0,.95,0,1.89,0,2.83s0,1.88,0,2.83a.58.58,0,0,1-.66.66H136.6a.59.59,0,0,1-.66-.68c0-.6,0-1.2,0-1.79s0-1.19,0-1.78q0-3.78.05-7.54V8.66a.58.58,0,0,1,.66-.66Z"/><path id="g" class="cls-1" d="M159.87,28.27A7.72,7.72,0,0,1,154,25.75l-.15-.19a.44.44,0,0,1-.06-.23,1.08,1.08,0,0,1,.25-.51c.17-.24.35-.48.55-.72l.41-.49a2,2,0,0,1,.22-.2.45.45,0,0,1,.28-.09.59.59,0,0,1,.23.05l.2.11a8.42,8.42,0,0,0,1.72.77,6.48,6.48,0,0,0,1.86.26,7,7,0,0,0,1.8-.24,3.26,3.26,0,0,0,1.52-.85,2.24,2.24,0,0,0,.61-1.68s0-.19,0-.4,0-.32-.09-.32a.17.17,0,0,0-.12.06l-.09.1a5.42,5.42,0,0,1-4.08,1.72,5.63,5.63,0,0,1-3.44-1.06,7.1,7.1,0,0,1-2.24-2.75,8.31,8.31,0,0,1-.78-3.54v-.32a8.31,8.31,0,0,1,.45-2.67,9,9,0,0,1,1.3-2.47,6.69,6.69,0,0,1,2-1.8A5.14,5.14,0,0,1,159,7.61a8,8,0,0,1,2.2.3A5.44,5.44,0,0,1,163.17,9a.29.29,0,0,0,.21.1q.17,0,.18-.27a2.09,2.09,0,0,1,.11-.53c.07-.18.22-.26.47-.26h2.4a.58.58,0,0,1,.66.66c0,.52,0,1.05,0,1.59v1.61c0,1.62,0,3.25.05,4.87s.06,3.25.06,4.88a5.94,5.94,0,0,1-1.06,3.53,7,7,0,0,1-2.74,2.31A8.32,8.32,0,0,1,159.87,28.27Zm.26-8.79a2.83,2.83,0,0,0,2-.77,4.77,4.77,0,0,0,1.23-1.85V13.49a1.62,1.62,0,0,0-.11-.33,3.06,3.06,0,0,0-.15-.31,3.71,3.71,0,0,0-1.32-1.5,3.36,3.36,0,0,0-1.9-.55,3.06,3.06,0,0,0-1.95.6A3.6,3.6,0,0,0,156.82,13a5.21,5.21,0,0,0-.38,2,5.44,5.44,0,0,0,.43,2.1,4.41,4.41,0,0,0,1.26,1.73A3,3,0,0,0,160.13,19.48Z"/><path id="p" class="cls-1" d="M84.75,52.92a7,7,0,0,1-2.34-.39,6.52,6.52,0,0,1-2.07-1.19.44.44,0,0,1-.11-.09.18.18,0,0,0-.14-.06s-.08,0-.09.12,0,.14,0,.17c0,.7,0,1.41,0,2.12s0,1.42,0,2.12v.8a7.06,7.06,0,0,1,0,.8.88.88,0,0,1-.17.48.6.6,0,0,1-.49.16H76.65c-.43,0-.65-.23-.65-.68,0-.82,0-1.66.06-2.49l.09-2.49c0-1.75.07-3.5.09-5.24s0-3.49,0-5.25V40.24c0-.53,0-1.06,0-1.58a.58.58,0,0,1,.66-.66H79a.57.57,0,0,1,.62.4,3.73,3.73,0,0,1,.14.8c0,.26.07.39.19.39a.42.42,0,0,0,.18-.08,9.91,9.91,0,0,1,2.45-1.4,7.54,7.54,0,0,1,2.77-.5,6.33,6.33,0,0,1,6.15,3.9,9.35,9.35,0,0,1,.79,3.88,8.29,8.29,0,0,1-.92,4A6.46,6.46,0,0,1,88.75,52,8.29,8.29,0,0,1,84.75,52.92ZM84,49.61a4.46,4.46,0,0,0,3.85-2.1,4.1,4.1,0,0,0,.6-2.2,4.23,4.23,0,0,0-1.24-3.15A4.3,4.3,0,0,0,84,40.93a4.37,4.37,0,0,0-2.43.69,3.91,3.91,0,0,0-1.55,2c0,.54,0,1.08,0,1.61v1.62a1.13,1.13,0,0,0,.1.33c.07.18.12.29.14.34a3.42,3.42,0,0,0,1.54,1.58A4.6,4.6,0,0,0,84,49.61Z"/><path id="r" class="cls-1" d="M97.62,38a.59.59,0,0,1,.67.59l.16,1.84s0,.09,0,.23.06.22.11.22.11-.06.17-.18l.11-.21a5.81,5.81,0,0,1,1.61-2,3.91,3.91,0,0,1,2.4-.71,7.93,7.93,0,0,1,.86.06c.35,0,.52.22.52.54a5.06,5.06,0,0,1-.09.76c-.07.34-.14.69-.22,1s-.14.61-.19.79a.91.91,0,0,1-.2.43.59.59,0,0,1-.46.15,1.62,1.62,0,0,1-.31,0,1.72,1.72,0,0,0-.33,0,3,3,0,0,0-2.14.79,5.09,5.09,0,0,0-1.31,2,6.48,6.48,0,0,0-.43,2.29V52a.59.59,0,0,1-.67.66H95.42a.59.59,0,0,1-.66-.68c0-1.66,0-3.32,0-5s0-3.32,0-5V38.66a.58.58,0,0,1,.66-.66Z"/><path id="o" class="cls-1" d="M105.15,45.38a8.19,8.19,0,0,1,1-4,7.16,7.16,0,0,1,2.68-2.78,7.68,7.68,0,0,1,4-1,7.33,7.33,0,0,1,3.88,1,7,7,0,0,1,2.59,2.75,8.19,8.19,0,0,1,.93,3.92,8.39,8.39,0,0,1-.92,4,6.76,6.76,0,0,1-2.59,2.71,7.6,7.6,0,0,1-4,1,8.08,8.08,0,0,1-4-1,6.62,6.62,0,0,1-2.64-2.63A8,8,0,0,1,105.15,45.38Zm7.54-4.55a3.22,3.22,0,0,0-2,.65,4.23,4.23,0,0,0-1.24,1.67,5.54,5.54,0,0,0-.42,2.13,4.68,4.68,0,0,0,.45,2,3.92,3.92,0,0,0,1.26,1.58,3.17,3.17,0,0,0,2,.61,3.22,3.22,0,0,0,2-.62,3.85,3.85,0,0,0,1.23-1.6,5.48,5.48,0,0,0,0-4.16,3.93,3.93,0,0,0-1.22-1.63A3.09,3.09,0,0,0,112.69,40.83Z"/><path id="j" class="cls-1" d="M126.84,52.74a12.56,12.56,0,0,1-.57,3.76,5.33,5.33,0,0,1-2.33,2.94.7.7,0,0,1-.36.12.57.57,0,0,1-.46-.26c-.1-.13-.29-.35-.56-.65s-.53-.6-.77-.92a1.38,1.38,0,0,1-.37-.66.5.5,0,0,1,.08-.26c0-.08.1-.16.15-.24a6.13,6.13,0,0,0,1-1.92A7.07,7.07,0,0,0,123,52.5q0-3.47,0-6.93c0-2.31,0-4.62,0-6.91a.58.58,0,0,1,.66-.66h2.49a.58.58,0,0,1,.66.66c0,2.34,0,4.68,0,7S126.84,50.4,126.84,52.74Zm-4-20.37a2.13,2.13,0,0,1,.6-1.5,2,2,0,0,1,1.49-.66,1.89,1.89,0,0,1,1.47.71,2.28,2.28,0,0,1,.61,1.53,2.14,2.14,0,0,1-.61,1.5,2,2,0,0,1-3,0A2.31,2.31,0,0,1,122.86,32.37Z"/><path id="e" class="cls-1" d="M137.1,53a8.5,8.5,0,0,1-4.1-.94,6.61,6.61,0,0,1-2.71-2.66,8.17,8.17,0,0,1-1-4.09,8.44,8.44,0,0,1,.92-4,7,7,0,0,1,2.59-2.78,7.43,7.43,0,0,1,3.93-1,6,6,0,0,1,4.38,1.57,8.1,8.1,0,0,1,2.15,4.15.65.65,0,0,1,0,.17.45.45,0,0,1-.13.36.87.87,0,0,1-.31.2,9.33,9.33,0,0,1-1.16.45c-.41.13-.8.27-1.19.42-1.13.42-2.26.83-3.4,1.23s-2.27.83-3.39,1.28c-.08.05-.12.1-.12.16a.3.3,0,0,0,0,.12,4.08,4.08,0,0,0,1.77,1.72,5.49,5.49,0,0,0,4.31.24,11.21,11.21,0,0,0,1.73-.8l.23-.12a.57.57,0,0,1,.22,0,.45.45,0,0,1,.35.13,1.16,1.16,0,0,1,.2.32,4,4,0,0,1,.25.51c.13.26.24.52.36.78a2.12,2.12,0,0,1,.17.51.44.44,0,0,1-.1.29,1.15,1.15,0,0,1-.23.21,8.11,8.11,0,0,1-2.78,1.19A12.6,12.6,0,0,1,137.1,53Zm-4-7.85L136.31,44c1.09-.37,2.17-.75,3.24-1.13a4.73,4.73,0,0,0-1.12-1.54,2.5,2.5,0,0,0-1.76-.66,3.08,3.08,0,0,0-2,.66,3.94,3.94,0,0,0-1.2,1.68A6.11,6.11,0,0,0,133.06,45.15Z"/><path id="c" class="cls-1" d="M155.36,48.9a.41.41,0,0,1,.34.15,1.36,1.36,0,0,1,.21.32c0,.09.13.3.25.63s.25.66.37,1a3.59,3.59,0,0,1,.17.58c0,.24-.19.44-.56.61a5.34,5.34,0,0,1-1.33.42,14,14,0,0,1-1.47.24c-.46.05-.78.07-1,.07a7,7,0,0,1-5.3-2,7.52,7.52,0,0,1-1.9-5.37,9,9,0,0,1,.88-4,6.75,6.75,0,0,1,2.54-2.83,7.27,7.27,0,0,1,4-1,10.56,10.56,0,0,1,1.94.2,6,6,0,0,1,1.84.64.91.91,0,0,1,.27.18.4.4,0,0,1,.1.3.61.61,0,0,1-.08.32l-.74,1.87a.6.6,0,0,1-.56.45.84.84,0,0,1-.36-.08,10.52,10.52,0,0,0-1.06-.3,5,5,0,0,0-1.1-.12,3.41,3.41,0,0,0-2.89,1.23,5.38,5.38,0,0,0,0,6,3.24,3.24,0,0,0,2.78,1.2,5.08,5.08,0,0,0,1.18-.14c.37-.1.75-.22,1.13-.36l.19-.06A.46.46,0,0,1,155.36,48.9Z"/><path id="t" class="cls-1" d="M160.81,37.77c0-.92,0-1.85,0-2.76s0-1.84,0-2.75a.58.58,0,0,1,.66-.66H164a.58.58,0,0,1,.66.66V35c0,.91,0,1.84,0,2.76,0,.13.07.19.21.19h2.53a.58.58,0,0,1,.66.66c0,.34,0,.67,0,1s0,.68,0,1a.59.59,0,0,1-.66.67h-2.51c-.14,0-.21.06-.21.19,0,1.74,0,3.48,0,5.22s0,3.48,0,5.22a.58.58,0,0,1-.66.66h-2.56a.58.58,0,0,1-.66-.66c0-1.74,0-3.48,0-5.22s0-3.48,0-5.22c0-.16-.12-.24-.34-.24l-.78.06a1.92,1.92,0,0,1-.77-.06c-.23-.08-.34-.28-.34-.62v-2a.58.58,0,0,1,.66-.66h1.36C160.74,38,160.81,37.9,160.81,37.77Z"/></g></svg>